<?xml version="1.0" encoding="UTF-8" standalone="no"?>
<!-- Created with Inkscape (http://www.inkscape.org/) -->

<svg
   width="2300"
   height="512"
   viewBox="0 0 608.54164 135.46667"
   version="1.1"
   id="svg5"
   xml:space="preserve"
   inkscape:version="1.2.2 (b0a8486541, 2022-12-01)"
   sodipodi:docname="logo-dark.svg"
   inkscape:export-filename="logo-dark.png"
   inkscape:export-xdpi="96"
   inkscape:export-ydpi="96"
   xmlns:inkscape="http://www.inkscape.org/namespaces/inkscape"
   xmlns:sodipodi="http://sodipodi.sourceforge.net/DTD/sodipodi-0.dtd"
   xmlns:xlink="http://www.w3.org/1999/xlink"
   xmlns="http://www.w3.org/2000/svg"
   xmlns:svg="http://www.w3.org/2000/svg"><sodipodi:namedview
     id="namedview7"
     pagecolor="#ffffff"
     bordercolor="#999999"
     borderopacity="1"
     inkscape:showpageshadow="0"
     inkscape:pageopacity="0"
     inkscape:pagecheckerboard="0"
     inkscape:deskcolor="#d1d1d1"
     inkscape:document-units="mm"
     showgrid="true"
     inkscape:zoom="0.57187263"
     inkscape:cx="737.05224"
     inkscape:cy="302.51492"
     inkscape:window-width="1920"
     inkscape:window-height="1131"
     inkscape:window-x="0"
     inkscape:window-y="0"
     inkscape:window-maximized="1"
     inkscape:current-layer="layer1"
     showguides="true"><inkscape:grid
       spacingx="8.4666666"
       spacingy="8.4666666"
       type="xygrid"
       id="grid22578"
       originx="0"
       originy="0" /></sodipodi:namedview><defs
     id="defs2"><linearGradient
       inkscape:collect="always"
       id="linearGradient4344"><stop
         style="stop-color:#f58945;stop-opacity:1;"
         offset="0"
         id="stop4441" /><stop
         style="stop-color:#aa585b;stop-opacity:1;"
         offset="0.33837891"
         id="stop4439" /><stop
         style="stop-color:#573170;stop-opacity:1;"
         offset="0.69117999"
         id="stop4437" /><stop
         style="stop-color:#2d1d7a;stop-opacity:1;"
         offset="1"
         id="stop4342" /></linearGradient><inkscape:path-effect
       effect="fillet_chamfer"
       id="path-effect362"
       is_visible="true"
       lpeversion="1"
       nodesatellites_param="F,0,0,1,0,1.5875,0,1 @ F,0,0,1,0,1.5875,0,1 @ F,0,0,1,0,1.5875,0,1 @ F,0,0,1,0,1.5875,0,1"
       unit="px"
       method="auto"
       mode="F"
       radius="6"
       chamfer_steps="1"
       flexible="false"
       use_knot_distance="true"
       apply_no_radius="true"
       apply_with_radius="true"
       only_selected="false"
       hide_knots="false" /><linearGradient
       inkscape:collect="always"
       xlink:href="#linearGradient4344"
       id="linearGradient4346"
       x1="103.22574"
       y1="172.02928"
       x2="103.22574"
       y2="69.43425"
       gradientUnits="userSpaceOnUse"
       gradientTransform="matrix(4.6214042,0,0,1.3204019,-104.51467,-91.681282)" /><filter
       style="color-interpolation-filters:sRGB"
       inkscape:label="Drop Shadow"
       id="filter15867"
       x="-1.0830619"
       y="-1.5472456"
       width="3.1661236"
       height="4.094491"><feFlood
         flood-opacity="0.498039"
         flood-color="rgb(0,0,0)"
         result="flood"
         id="feFlood15857" /><feComposite
         in="SourceGraphic"
         in2="flood"
         operator="in"
         result="composite1"
         id="feComposite15859" /><feGaussianBlur
         in="composite1"
         stdDeviation="34.7404"
         result="blur"
         id="feGaussianBlur15861" /><feOffset
         dx="0"
         dy="0"
         result="offset"
         id="feOffset15863" /><feComposite
         in="SourceGraphic"
         in2="offset"
         operator="over"
         result="composite2"
         id="feComposite15865" /></filter><filter
       style="color-interpolation-filters:sRGB"
       inkscape:label="Drop Shadow"
       id="filter16734"
       x="-0.178014"
       y="-0.77566868"
       width="1.356028"
       height="2.5513375"><feFlood
         flood-opacity="0.498039"
         flood-color="rgb(0,0,0)"
         result="flood"
         id="feFlood16724" /><feComposite
         in="SourceGraphic"
         in2="flood"
         operator="in"
         result="composite1"
         id="feComposite16726" /><feGaussianBlur
         in="composite1"
         stdDeviation="10.0479"
         result="blur"
         id="feGaussianBlur16728" /><feOffset
         dx="0"
         dy="0"
         result="offset"
         id="feOffset16730" /><feComposite
         in="SourceGraphic"
         in2="offset"
         operator="over"
         result="composite2"
         id="feComposite16732" /></filter><inkscape:path-effect
       effect="fillet_chamfer"
       id="path-effect362-0"
       is_visible="true"
       lpeversion="1"
       nodesatellites_param="F,0,0,1,0,1.5875,0,1 @ F,0,0,1,0,1.5875,0,1 @ F,0,0,1,0,1.5875,0,1 @ F,0,0,1,0,1.5875,0,1"
       unit="px"
       method="auto"
       mode="F"
       radius="6"
       chamfer_steps="1"
       flexible="false"
       use_knot_distance="true"
       apply_no_radius="true"
       apply_with_radius="true"
       only_selected="false"
       hide_knots="false" /><linearGradient
       inkscape:collect="always"
       xlink:href="#linearGradient4344"
       id="linearGradient4346-6"
       x1="103.22574"
       y1="172.02928"
       x2="103.22574"
       y2="69.43425"
       gradientUnits="userSpaceOnUse"
       gradientTransform="matrix(1.3204019,0,0,1.3204019,-68.56613,-91.681116)" /><filter
       style="color-interpolation-filters:sRGB;"
       inkscape:label="Drop Shadow"
       id="filter15867-2"
       x="-1.0830619"
       y="-1.5472456"
       width="3.1661237"
       height="4.0944912"><feFlood
         flood-opacity="0.498039"
         flood-color="rgb(0,0,0)"
         result="flood"
         id="feFlood15857-6" /><feComposite
         in="SourceGraphic"
         in2="flood"
         operator="in"
         result="composite1"
         id="feComposite15859-1" /><feGaussianBlur
         in="composite1"
         stdDeviation="34.7404"
         result="blur"
         id="feGaussianBlur15861-8" /><feOffset
         dx="0"
         dy="0"
         result="offset"
         id="feOffset15863-7" /><feComposite
         in="SourceGraphic"
         in2="offset"
         operator="over"
         result="composite2"
         id="feComposite15865-9" /></filter><filter
       style="color-interpolation-filters:sRGB;"
       inkscape:label="Drop Shadow"
       id="filter16734-2"
       x="-0.17801399"
       y="-0.77566871"
       width="1.356028"
       height="2.5513374"><feFlood
         flood-opacity="0.498039"
         flood-color="rgb(0,0,0)"
         result="flood"
         id="feFlood16724-0" /><feComposite
         in="SourceGraphic"
         in2="flood"
         operator="in"
         result="composite1"
         id="feComposite16726-2" /><feGaussianBlur
         in="composite1"
         stdDeviation="10.0479"
         result="blur"
         id="feGaussianBlur16728-3" /><feOffset
         dx="0"
         dy="0"
         result="offset"
         id="feOffset16730-7" /><feComposite
         in="SourceGraphic"
         in2="offset"
         operator="over"
         result="composite2"
         id="feComposite16732-5" /></filter><linearGradient
       inkscape:collect="always"
       xlink:href="#linearGradient4344"
       id="linearGradient31149"
       gradientUnits="userSpaceOnUse"
       gradientTransform="matrix(1.3204019,0,0,1.3204019,-68.56613,-91.681116)"
       x1="103.22574"
       y1="172.02928"
       x2="103.22574"
       y2="69.43425" /><linearGradient
       inkscape:collect="always"
       xlink:href="#linearGradient4344"
       id="linearGradient943"
       gradientUnits="userSpaceOnUse"
       gradientTransform="matrix(1.3204019,0,0,1.3203987,-68.56613,-91.680889)"
       x1="103.22574"
       y1="172.02928"
       x2="103.22574"
       y2="69.43425" /><filter
       style="color-interpolation-filters:sRGB;"
       inkscape:label="Lightness-Contrast"
       id="filter2840"
       x="-0.093574624"
       y="-0.13602181"
       width="1.1871492"
       height="1.2720436"><feFlood
         flood-opacity="1"
         flood-color="rgb(255,255,255)"
         result="flood"
         id="feFlood2830" /><feComposite
         in="SourceGraphic"
         in2="flood"
         operator="in"
         result="composite1"
         id="feComposite2832" /><feGaussianBlur
         in="composite1"
         stdDeviation="3"
         result="blur"
         id="feGaussianBlur2834" /><feOffset
         dx="0"
         dy="0"
         result="offset"
         id="feOffset2836" /><feComposite
         in="SourceGraphic"
         in2="offset"
         operator="over"
         result="fbSourceGraphic"
         id="feComposite2838" /><feColorMatrix
         result="fbSourceGraphicAlpha"
         in="fbSourceGraphic"
         values="0 0 0 -1 0 0 0 0 -1 0 0 0 0 -1 0 0 0 0 1 0"
         id="feColorMatrix12561" /><feColorMatrix
         id="feColorMatrix12563"
         values="1 0 0 0.343724 -0 0 1 0 0.343724 -0 0 0 1 0.343724 -0 0 0 0 1 0"
         in="fbSourceGraphic" /></filter><filter
       style="color-interpolation-filters:sRGB;"
       inkscape:label="Lightness-Contrast"
       id="filter3578"
       x="-0.017725754"
       y="-0.10600806"
       width="1.0354515"
       height="1.2120161"><feFlood
         flood-opacity="1"
         flood-color="rgb(255,255,255)"
         result="flood"
         id="feFlood3568" /><feComposite
         in="SourceGraphic"
         in2="flood"
         operator="in"
         result="composite1"
         id="feComposite3570" /><feGaussianBlur
         in="composite1"
         stdDeviation="3"
         result="blur"
         id="feGaussianBlur3572" /><feOffset
         dx="0"
         dy="0"
         result="offset"
         id="feOffset3574" /><feComposite
         in="SourceGraphic"
         in2="offset"
         operator="over"
         result="fbSourceGraphic"
         id="feComposite3576" /><feColorMatrix
         result="fbSourceGraphicAlpha"
         in="fbSourceGraphic"
         values="0 0 0 -1 0 0 0 0 -1 0 0 0 0 -1 0 0 0 0 1 0"
         id="feColorMatrix12565" /><feColorMatrix
         id="feColorMatrix12567"
         values="1 0 0 0.343724 -0 0 1 0 0.343724 -0 0 0 1 0.343724 -0 0 0 0 1 0"
         in="fbSourceGraphic" /></filter><filter
       style="color-interpolation-filters:sRGB;"
       inkscape:label="Lightness-Contrast"
       id="filter12571"
       x="0"
       y="0"
       width="1"
       height="1"><feColorMatrix
         values="1 0 0 0.343724 -0 0 1 0 0.343724 -0 0 0 1 0.343724 -0 0 0 0 1 0"
         id="feColorMatrix12569" /></filter></defs><g
     inkscape:label="Layer 1"
     inkscape:groupmode="layer"
     id="layer1"><rect
       style="fill:url(#linearGradient943);fill-opacity:1;stroke-width:1.32292;stop-color:#000000;opacity:0.20314832;filter:url(#filter12571)"
       id="rect4278-3"
       width="135.46666"
       height="135.46666"
       x="-3.5527137e-15"
       y="0" /><path
       id="rect4278"
       style="fill:url(#linearGradient4346);fill-opacity:1;stroke-width:2.47495;stop-color:#000000;filter:url(#filter3578)"
       d="M 366.05052 41.616064 L 359.64213 44.709932 L 359.64213 57.159302 L 353.52778 57.159302 L 353.52778 62.757926 L 359.64213 62.757926 L 359.64213 86.699101 C 359.64213 92.002983 361.92551 95.686149 367.59772 95.686149 C 370.54432 95.686149 372.82796 95.023506 374.81691 93.992196 L 375.55382 87.730562 C 373.93319 88.761873 372.09148 89.719588 369.9552 89.719588 C 366.64027 89.719588 366.05052 87.435733 366.05052 84.562797 L 366.05052 62.757926 L 375.33265 62.757926 L 375.33265 57.159302 L 366.05052 57.159302 L 366.05052 41.616064 z M 341.96207 42.205693 C 339.75212 42.205693 337.98454 44.04689 337.98454 46.330505 C 337.98454 48.540456 339.75212 50.308557 341.96207 50.308557 C 344.24569 50.308557 346.01402 48.540456 346.01402 46.330505 C 346.01402 44.04689 344.24569 42.205693 341.96207 42.205693 z M 169.43875 43.236637 L 169.43875 94.802482 L 175.84766 94.802482 L 175.84766 63.126379 C 175.84766 61.358419 175.77382 58.853725 175.62649 57.527755 C 176.21581 59.22205 177.17371 61.505749 177.83669 63.126379 L 191.53818 95.686149 L 205.68202 63.273657 C 206.41867 61.505697 207.37628 59.14867 207.9656 57.454374 C 207.89194 58.780345 207.81832 61.358419 207.81832 63.126379 L 207.81832 94.802482 L 214.22723 94.802482 L 214.22723 43.236637 L 208.11288 43.236637 L 193.08537 77.933228 C 192.64338 79.038203 192.12768 80.290573 191.75935 81.395549 L 190.43334 77.933228 L 175.47921 43.236637 L 169.43875 43.236637 z M 241.92528 56.275635 C 231.83318 56.275635 225.27669 63.641858 225.27669 76.017582 C 225.27669 88.466972 231.83318 95.686149 241.92528 95.686149 C 252.01739 95.686149 258.57336 88.319926 258.57336 75.944202 C 258.57336 63.494812 252.01739 56.275635 241.92528 56.275635 z M 283.91445 56.275635 C 279.71555 56.275635 276.69508 58.338001 275.00079 62.094918 L 275.00079 57.159302 L 268.59187 57.159302 L 268.59187 94.802482 L 275.00079 94.802482 L 275.00079 73.586723 C 275.00079 65.04158 279.78914 62.610649 283.39872 62.610649 C 285.977 62.610649 287.59753 63.420906 288.77617 64.231222 L 289.73374 58.190763 C 288.40777 57.085788 286.3454 56.275635 283.91445 56.275635 z M 313.38035 56.275635 C 309.32878 56.275635 306.01368 57.748815 303.6564 60.990076 L 303.6564 57.159302 L 297.24749 57.159302 L 297.24749 94.802482 L 303.6564 94.802482 L 303.6564 71.892253 C 303.6564 64.599415 307.41334 62.168815 312.34889 62.168815 C 316.98979 62.168815 320.45227 64.89454 320.45227 72.040047 L 320.45227 94.802482 L 326.86119 94.802482 L 326.86119 73.144889 C 326.86119 60.99016 321.9255 56.275635 313.38035 56.275635 z M 398.75809 56.275635 C 388.73965 56.275635 382.03611 63.494812 382.03611 75.944202 C 382.03611 87.435946 388.44499 95.686149 398.75809 95.686149 C 403.84098 95.686149 408.11363 93.623701 410.9129 90.82443 L 407.00823 86.478442 C 404.65095 88.835723 401.7783 89.866866 398.90537 89.866866 C 393.23316 89.866866 389.10796 85.372954 388.5923 78.448442 L 414.08015 78.448442 C 414.22748 76.975141 414.30133 75.354991 414.30133 74.176351 C 414.30133 61.800626 407.22957 56.275635 398.75809 56.275635 z M 438.09522 56.275635 C 432.42302 56.275635 427.48738 58.264214 424.46711 60.25317 L 426.30835 65.631136 C 429.10762 63.64218 433.08551 61.874259 437.28442 61.874259 C 442.14631 61.874259 445.4617 63.715725 445.4617 70.345577 L 445.4617 72.997611 C 442.36777 71.229651 439.05267 70.566752 435.73774 70.566752 C 428.44491 70.566752 421.6678 74.323648 421.6678 83.016121 C 421.6678 91.413934 427.11902 95.686149 434.78018 95.686149 C 439.27375 95.686149 442.95709 93.697442 445.4617 91.340161 L 445.4617 94.802482 L 451.50216 94.802482 L 451.50216 69.829846 C 451.50216 58.264437 443.98843 56.275635 438.09522 56.275635 z M 475.81127 56.275635 C 466.23481 56.275635 460.41531 63.862853 460.41531 76.017582 C 460.41531 88.466972 466.67698 95.686149 476.03244 95.686149 C 480.45234 95.686149 483.25161 93.84454 485.53522 91.266264 L 485.53522 109.53543 L 491.94413 106.66222 L 491.94413 57.159302 L 485.53522 57.159302 L 485.53522 60.327067 C 483.25161 58.264446 480.3785 56.275635 475.81127 56.275635 z M 560.08416 56.275635 C 550.06572 56.275635 543.36218 63.494812 543.36218 75.944202 C 543.36218 87.435946 549.77106 95.686149 560.08416 95.686149 C 565.16705 95.686149 569.4397 93.623701 572.23897 90.82443 L 568.33482 86.478442 C 565.97754 88.835723 563.10437 89.866866 560.23144 89.866866 C 554.55923 89.866866 550.43403 85.372954 549.91837 78.448442 L 575.40674 78.448442 C 575.55407 76.975141 575.6274 75.354991 575.6274 74.176351 C 575.6274 61.800626 568.55564 56.275635 560.08416 56.275635 z M 338.79482 57.159302 L 338.79482 94.802482 L 345.20374 94.802482 L 345.20374 57.159302 L 338.79482 57.159302 z M 503.73049 57.159302 L 503.73049 78.890792 C 503.73049 90.971856 508.59218 95.686149 517.43198 95.686149 C 521.40989 95.686149 524.43015 94.434144 526.93476 91.192883 L 526.93476 94.802482 L 533.34367 94.802482 L 533.34367 57.159302 L 526.93476 57.159302 L 526.93476 79.995634 C 526.93476 87.362137 523.17834 89.719588 518.24279 89.719588 C 513.60189 89.719588 510.1394 86.993864 510.1394 79.848356 L 510.1394 57.159302 L 503.73049 57.159302 z M 398.75809 61.94764 C 402.736 61.94764 407.74485 64.452468 407.81852 72.997611 L 388.5184 72.997611 C 388.88673 65.262784 393.30688 61.94764 398.75809 61.94764 z M 560.08416 61.94764 C 564.06207 61.94764 569.07144 64.452468 569.1451 72.997611 L 549.84499 72.997611 C 550.21332 65.262784 554.63295 61.94764 560.08416 61.94764 z M 241.92528 62.168815 C 248.33414 62.168815 252.09107 67.399059 252.09107 75.944202 C 252.09107 84.56301 248.26048 89.719588 241.92528 89.719588 C 235.51643 89.719588 231.7595 84.562725 231.7595 76.017582 C 231.7595 67.251444 235.51643 62.168815 241.92528 62.168815 z M 476.62155 62.168815 C 480.23114 62.168815 483.4726 63.789453 485.53522 67.251709 L 485.53522 84.562797 C 483.84093 86.772748 480.96779 89.719588 476.62155 89.719588 C 470.36003 89.719588 466.89812 84.857385 466.89812 76.017582 C 466.89812 68.135424 470.50736 62.168815 476.62155 62.168815 z M 436.62193 76.091479 C 439.71586 76.091479 443.17808 77.196601 445.4617 78.596236 L 445.4617 85.078528 C 443.32541 87.583139 439.93665 90.014144 435.73774 90.014144 C 430.58119 90.014144 427.70826 87.215028 427.70826 83.016121 C 427.70826 78.227895 431.76004 76.091479 436.62193 76.091479 z " /><g
       inkscape:label="Layer 1"
       id="layer1-9"
       style="filter:url(#filter2840)"><path
         id="rect4278-22"
         style="fill:url(#linearGradient31149);fill-opacity:1;stroke-width:1.32291;stop-color:#000000"
         d="m 42.10389,45.155383 c -0.361223,0.316463 -0.662328,0.698373 -0.884701,1.12913 h 12.131043 v -1.12913 z m 14.107666,0 v 1.12913 h 42.348836 c -0.75728,-0.440743 -1.554187,-0.820994 -2.386417,-1.12913 z m -15.36547,2.257744 c -0.03447,0.207479 -0.05684,0.418725 -0.05684,0.636137 v 0.492993 h 12.56099 v -1.12913 z m 15.36547,0 v 1.12913 h 45.327984 c -0.41287,-0.40011 -0.84777,-0.776914 -1.30328,-1.12913 z M 40.789242,49.67087 V 50.8 h 12.56099 v -1.12913 z m 15.422314,0 V 50.8 h 47.249834 c -0.27208,-0.389999 -0.56102,-0.76666 -0.86714,-1.12913 z m -15.422314,2.25826 v 1.128613 h 12.56099 V 51.92913 Z m 15.422314,0 v 1.128613 H 86.979187 V 51.92913 Z m 35.274333,0 c 1.239157,0.105381 2.394876,0.504627 3.397725,1.128613 h 9.884156 c -0.18118,-0.385574 -0.37873,-0.76133 -0.59015,-1.128613 z m -50.696647,2.257743 v 1.128614 h 12.56099 v -1.128614 z m 15.422314,0 v 1.128614 h 30.767631 v -1.128614 z m 40.086959,0 c 0.342102,0.345842 0.652335,0.7234 0.924491,1.128614 h 8.393804 c -0.11049,-0.382351 -0.23337,-0.759137 -0.37207,-1.128614 z m -55.509273,2.257744 v 1.128613 h 12.56099 v -1.128613 z m 15.422314,0 v 1.128613 h 30.767631 v -1.128613 z m 41.637252,0 c 0.163317,0.362414 0.299475,0.739135 0.40566,1.128613 h 7.833632 c -0.05,-0.380477 -0.11036,-0.757418 -0.18759,-1.128613 z M 40.789242,58.70236 v 1.128613 h 8.332307 c 0.173444,-0.455436 0.475471,-0.846041 0.862997,-1.128613 z m 18.787483,0 c 0.387543,0.282585 0.690074,0.673151 0.863513,1.128613 H 86.979187 V 58.70236 Z m 38.895817,0 c 0.03412,0.293624 0.05374,0.59186 0.05374,0.894519 0,0.07857 -0.0039,0.156081 -0.0062,0.234094 h 7.698238 c 10e-4,-0.07825 0.006,-0.155562 0.006,-0.234094 0,-0.300357 -0.0109,-0.598417 -0.0279,-0.894519 z m -57.6833,2.257743 v 1.128614 h 8.166943 v -1.128614 z m 19.815844,0 v 1.128614 h 26.374101 v -1.128614 z m 37.79821,0 c -0.06943,0.386957 -0.167922,0.763901 -0.293005,1.128614 h 7.910629 c 0.0605,-0.371894 0.10665,-0.748275 0.14004,-1.128614 z m -57.614054,2.257744 v 1.128613 h 8.166943 v -1.128613 z m 19.815844,0 v 1.128613 h 26.374101 v -1.128613 z m 37.014795,0 c -0.213395,0.398778 -0.461821,0.775526 -0.73949,1.128613 h 8.594309 c 0.11996,-0.370212 0.22521,-0.746703 0.31729,-1.128613 z M 40.789242,65.47559 v 1.128613 h 8.166943 V 65.47559 Z m 19.815844,0 v 1.128613 H 86.979187 V 65.47559 Z m 35.186483,0 c -0.536113,0.453339 -1.134888,0.833984 -1.781287,1.128613 h 10.525968 c 0.18861,-0.36825 0.36442,-0.743912 0.52349,-1.128613 z m -55.002327,2.257743 v 1.12913 h 8.166943 v -1.12913 z m 19.815844,0 v 1.12913 h 42.518854 c 0.27459,-0.363846 0.53209,-0.74115 0.77411,-1.12913 z m -19.815844,2.257744 v 1.12913 h 8.166943 v -1.12913 z m 19.815844,0 v 1.12913 h 40.429574 c 0.40255,-0.356821 0.78814,-0.732451 1.15135,-1.12913 z M 40.789242,72.24882 v 1.12913 h 8.332824 C 49.016591,73.101639 48.956184,72.803 48.956185,72.489632 V 72.24882 Z m 19.815844,0 v 0.240812 c 10e-7,0.313345 -0.0599,0.612024 -0.165364,0.888318 h 37.254056 c 0.663775,-0.331332 1.300401,-0.709004 1.905311,-1.12913 z m -19.815844,2.257743 v 0.486792 c 0,0.21556 0.0069,0.429683 0.0186,0.642338 H 86.96058 c 0.01167,-0.212654 0.0186,-0.426779 0.0186,-0.642338 h 3.848861 c 1.331407,0 2.622918,-0.169166 3.855062,-0.486792 H 59.574658 c -0.411611,0.299485 -0.916524,0.478006 -1.46451,0.478007 h -6.659025 c -0.547986,0 -1.052899,-0.178522 -1.46451,-0.478007 z m 0.135392,2.257744 c 0.05899,0.382913 0.136876,0.759577 0.232544,1.12913 h 45.454073 c 0.09568,-0.369553 0.173544,-0.746217 0.232544,-1.12913 z m 0.588594,2.257743 c 0.144161,0.386905 0.309796,0.763099 0.492994,1.12913 H 85.76169 c 0.183218,-0.366024 0.348815,-0.742232 0.492993,-1.12913 z m 1.140499,2.257743 c 0.255981,0.393349 0.533938,0.770837 0.834575,1.12913 h 40.790791 c 0.300737,-0.358357 0.57903,-0.735702 0.835092,-1.12913 z m 1.917196,2.257744 c 0.455777,0.414531 0.94616,0.790989 1.463993,1.12913 h 35.697563 c 0.517963,-0.338182 1.008619,-0.714533 1.46451,-1.12913 z m 3.684529,2.25826 c 1.269256,0.480082 2.643946,0.745174 4.080888,0.745174 h 23.094715 c 1.436945,0 2.811568,-0.265092 4.080888,-0.745174 z" /><path
         id="rect4278-2"
         style="fill:url(#linearGradient4346-6);fill-opacity:1;stroke-width:1.32291;stop-color:#000000"
         d="m 33.091003,90.390348 c -1.023467,0 -1.949872,0.400293 -2.638598,1.049549 h 66.863102 c -0.688929,-0.649304 -1.615602,-1.049549 -2.639115,-1.049549 z m -3.464904,2.178679 c -0.16893,0.350489 -0.289597,0.728496 -0.345716,1.128613 h 69.207145 c -0.05614,-0.400111 -0.176723,-0.778128 -0.345715,-1.128613 z m -0.340031,2.257743 c 0.06111,0.400746 0.187389,0.778843 0.361735,1.128613 h 68.472306 c 0.174411,-0.349769 0.300596,-0.727868 0.361735,-1.128613 z m 1.21698,2.257743 c 0.683337,0.621654 1.589174,1.003557 2.587955,1.003557 h 61.585389 c 0.998852,0 1.90493,-0.381827 2.588472,-1.003557 z" /></g></g></svg>
