<?xml version="1.0" encoding="UTF-8" standalone="no"?>
<!-- Created with Inkscape (http://www.inkscape.org/) -->

<svg
   width="2300"
   height="512"
   viewBox="0 0 608.54164 135.46667"
   version="1.1"
   id="svg5"
   xml:space="preserve"
   inkscape:version="1.3.2 (091e20ef0f, 2023-11-25)"
   sodipodi:docname="logo-light.svg"
   inkscape:export-filename="logo-light.png"
   inkscape:export-xdpi="96"
   inkscape:export-ydpi="96"
   xmlns:inkscape="http://www.inkscape.org/namespaces/inkscape"
   xmlns:sodipodi="http://sodipodi.sourceforge.net/DTD/sodipodi-0.dtd"
   xmlns:xlink="http://www.w3.org/1999/xlink"
   xmlns="http://www.w3.org/2000/svg"
   xmlns:svg="http://www.w3.org/2000/svg"><sodipodi:namedview
     id="namedview7"
     pagecolor="#ffffff"
     bordercolor="#999999"
     borderopacity="1"
     inkscape:showpageshadow="0"
     inkscape:pageopacity="0"
     inkscape:pagecheckerboard="0"
     inkscape:deskcolor="#d1d1d1"
     inkscape:document-units="mm"
     showgrid="true"
     inkscape:zoom="0.5643631"
     inkscape:cx="540.43221"
     inkscape:cy="341.09246"
     inkscape:window-width="2560"
     inkscape:window-height="1371"
     inkscape:window-x="0"
     inkscape:window-y="0"
     inkscape:window-maximized="1"
     inkscape:current-layer="layer1"
     showguides="true"
     inkscape:lockguides="false"><inkscape:grid
       spacingx="8.4666666"
       spacingy="8.4666666"
       type="xygrid"
       id="grid22578"
       originx="0"
       originy="0"
       units="mm"
       visible="true" /></sodipodi:namedview><defs
     id="defs2"><linearGradient
       inkscape:collect="always"
       id="linearGradient31695"><stop
         style="stop-color:#f2f2f2;stop-opacity:1;"
         offset="0"
         id="stop31691" /><stop
         style="stop-color:#ffffff;stop-opacity:1;"
         offset="1"
         id="stop31693" /></linearGradient><linearGradient
       inkscape:collect="always"
       id="linearGradient31439"><stop
         style="stop-color:#f1f1f1;stop-opacity:1;"
         offset="0"
         id="stop31431" /><stop
         style="stop-color:#ffffff;stop-opacity:1;"
         offset="1"
         id="stop31437" /></linearGradient><inkscape:path-effect
       effect="fillet_chamfer"
       id="path-effect362"
       is_visible="true"
       lpeversion="1"
       nodesatellites_param="F,0,0,1,0,1.5875,0,1 @ F,0,0,1,0,1.5875,0,1 @ F,0,0,1,0,1.5875,0,1 @ F,0,0,1,0,1.5875,0,1"
       unit="px"
       method="auto"
       mode="F"
       radius="6"
       chamfer_steps="1"
       flexible="false"
       use_knot_distance="true"
       apply_no_radius="true"
       apply_with_radius="true"
       only_selected="false"
       hide_knots="false" /><filter
       style="color-interpolation-filters:sRGB"
       inkscape:label="Drop Shadow"
       id="filter15867"
       x="-1.0830619"
       y="-1.5472456"
       width="3.1661236"
       height="4.094491"><feFlood
         flood-opacity="0.498039"
         flood-color="rgb(0,0,0)"
         result="flood"
         id="feFlood15857" /><feComposite
         in="SourceGraphic"
         in2="flood"
         operator="in"
         result="composite1"
         id="feComposite15859" /><feGaussianBlur
         in="composite1"
         stdDeviation="34.7404"
         result="blur"
         id="feGaussianBlur15861" /><feOffset
         dx="0"
         dy="0"
         result="offset"
         id="feOffset15863" /><feComposite
         in="SourceGraphic"
         in2="offset"
         operator="over"
         result="composite2"
         id="feComposite15865" /></filter><filter
       style="color-interpolation-filters:sRGB"
       inkscape:label="Drop Shadow"
       id="filter16734"
       x="-0.178014"
       y="-0.77566868"
       width="1.356028"
       height="2.5513375"><feFlood
         flood-opacity="0.498039"
         flood-color="rgb(0,0,0)"
         result="flood"
         id="feFlood16724" /><feComposite
         in="SourceGraphic"
         in2="flood"
         operator="in"
         result="composite1"
         id="feComposite16726" /><feGaussianBlur
         in="composite1"
         stdDeviation="10.0479"
         result="blur"
         id="feGaussianBlur16728" /><feOffset
         dx="0"
         dy="0"
         result="offset"
         id="feOffset16730" /><feComposite
         in="SourceGraphic"
         in2="offset"
         operator="over"
         result="composite2"
         id="feComposite16732" /></filter><inkscape:path-effect
       effect="fillet_chamfer"
       id="path-effect362-0"
       is_visible="true"
       lpeversion="1"
       nodesatellites_param="F,0,0,1,0,1.5875,0,1 @ F,0,0,1,0,1.5875,0,1 @ F,0,0,1,0,1.5875,0,1 @ F,0,0,1,0,1.5875,0,1"
       unit="px"
       method="auto"
       mode="F"
       radius="6"
       chamfer_steps="1"
       flexible="false"
       use_knot_distance="true"
       apply_no_radius="true"
       apply_with_radius="true"
       only_selected="false"
       hide_knots="false" /><filter
       style="color-interpolation-filters:sRGB;"
       inkscape:label="Drop Shadow"
       id="filter15867-2"
       x="-1.0830619"
       y="-1.5472456"
       width="3.1661237"
       height="4.0944912"><feFlood
         flood-opacity="0.498039"
         flood-color="rgb(0,0,0)"
         result="flood"
         id="feFlood15857-6" /><feComposite
         in="SourceGraphic"
         in2="flood"
         operator="in"
         result="composite1"
         id="feComposite15859-1" /><feGaussianBlur
         in="composite1"
         stdDeviation="34.7404"
         result="blur"
         id="feGaussianBlur15861-8" /><feOffset
         dx="0"
         dy="0"
         result="offset"
         id="feOffset15863-7" /><feComposite
         in="SourceGraphic"
         in2="offset"
         operator="over"
         result="composite2"
         id="feComposite15865-9" /></filter><filter
       style="color-interpolation-filters:sRGB;"
       inkscape:label="Drop Shadow"
       id="filter16734-2"
       x="-0.17801399"
       y="-0.77566871"
       width="1.356028"
       height="2.5513374"><feFlood
         flood-opacity="0.498039"
         flood-color="rgb(0,0,0)"
         result="flood"
         id="feFlood16724-0" /><feComposite
         in="SourceGraphic"
         in2="flood"
         operator="in"
         result="composite1"
         id="feComposite16726-2" /><feGaussianBlur
         in="composite1"
         stdDeviation="10.0479"
         result="blur"
         id="feGaussianBlur16728-3" /><feOffset
         dx="0"
         dy="0"
         result="offset"
         id="feOffset16730-7" /><feComposite
         in="SourceGraphic"
         in2="offset"
         operator="over"
         result="composite2"
         id="feComposite16732-5" /></filter><linearGradient
       inkscape:collect="always"
       xlink:href="#linearGradient31439"
       id="linearGradient31429"
       x1="367.02353"
       y1="94.802345"
       x2="367.02353"
       y2="41.616142"
       gradientUnits="userSpaceOnUse" /><linearGradient
       inkscape:collect="always"
       xlink:href="#linearGradient31695"
       id="linearGradient31697"
       x1="67.73333"
       y1="135.46666"
       x2="67.73333"
       y2="0"
       gradientUnits="userSpaceOnUse" /></defs><g
     inkscape:label="Layer 1"
     inkscape:groupmode="layer"
     id="layer1"><path
       id="rect31196"
       style="opacity:1;fill:url(#linearGradient31697);fill-opacity:1;stroke-width:1.85348;stop-color:#000000"
       d="M 0 0 L 0 135.46667 L 135.46667 135.46667 L 135.46667 0 L 0 0 z M 42.10389 45.155383 L 53.350232 45.155383 L 53.350232 46.284513 L 41.219189 46.284513 C 41.441562 45.853757 41.742667 45.471846 42.10389 45.155383 z M 56.211556 45.155383 L 96.173975 45.155383 C 97.006204 45.463519 97.803113 45.843771 98.560392 46.284513 L 56.211556 46.284513 L 56.211556 45.155383 z M 40.846086 47.413127 L 53.350232 47.413127 L 53.350232 48.542257 L 40.789242 48.542257 L 40.789242 48.049264 C 40.789242 47.831852 40.811616 47.620605 40.846086 47.413127 z M 56.211556 47.413127 L 100.23626 47.413127 C 100.69177 47.765342 101.12667 48.142147 101.53954 48.542257 L 56.211556 48.542257 L 56.211556 47.413127 z M 40.789242 49.67087 L 53.350232 49.67087 L 53.350232 50.8 L 40.789242 50.8 L 40.789242 49.67087 z M 56.211556 49.67087 L 102.59425 49.67087 C 102.90037 50.03334 103.18931 50.410001 103.46139 50.8 L 56.211556 50.8 L 56.211556 49.67087 z M 40.789242 51.92913 L 53.350232 51.92913 L 53.350232 53.057743 L 40.789242 53.057743 L 40.789242 51.92913 z M 56.211556 51.92913 L 86.979187 51.92913 L 86.979187 53.057743 L 56.211556 53.057743 L 56.211556 51.92913 z M 91.485889 51.92913 L 104.17762 51.92913 C 104.38904 52.296413 104.58659 52.67217 104.76777 53.057743 L 94.883614 53.057743 C 93.880766 52.433758 92.725044 52.034511 91.485889 51.92913 z M 40.789242 54.186873 L 53.350232 54.186873 L 53.350232 55.315487 L 40.789242 55.315487 L 40.789242 54.186873 z M 56.211556 54.186873 L 86.979187 54.186873 L 86.979187 55.315487 L 56.211556 55.315487 L 56.211556 54.186873 z M 96.298515 54.186873 L 105.24474 54.186873 C 105.38344 54.55635 105.50632 54.933136 105.61681 55.315487 L 97.223006 55.315487 C 96.95085 54.910273 96.640616 54.532715 96.298515 54.186873 z M 40.789242 56.444617 L 53.350232 56.444617 L 53.350232 57.57323 L 40.789242 57.57323 L 40.789242 56.444617 z M 56.211556 56.444617 L 86.979187 56.444617 L 86.979187 57.57323 L 56.211556 57.57323 L 56.211556 56.444617 z M 97.848808 56.444617 L 105.90051 56.444617 C 105.97774 56.815811 106.0381 57.192753 106.0881 57.57323 L 98.254468 57.57323 C 98.148283 57.183752 98.012125 56.80703 97.848808 56.444617 z M 40.789242 58.70236 L 49.984546 58.70236 C 49.59702 58.984932 49.294993 59.375538 49.121549 59.830973 L 40.789242 59.830973 L 40.789242 58.70236 z M 59.576725 58.70236 L 86.979187 58.70236 L 86.979187 59.830973 L 60.440238 59.830973 C 60.2668 59.375512 59.964268 58.984945 59.576725 58.70236 z M 98.472542 58.70236 L 106.19662 58.70236 C 106.21362 58.998462 106.22452 59.296522 106.22452 59.596879 C 106.22452 59.675411 106.21932 59.752723 106.21832 59.830973 L 98.520085 59.830973 C 98.522385 59.75296 98.526286 59.675449 98.526286 59.596879 C 98.526286 59.29422 98.506662 58.995984 98.472542 58.70236 z M 40.789242 60.960103 L 48.956185 60.960103 L 48.956185 62.088717 L 40.789242 62.088717 L 40.789242 60.960103 z M 60.605086 60.960103 L 86.979187 60.960103 L 86.979187 62.088717 L 60.605086 62.088717 L 60.605086 60.960103 z M 98.403296 60.960103 L 106.16096 60.960103 C 106.12757 61.340442 106.08142 61.716823 106.02092 62.088717 L 98.110291 62.088717 C 98.235373 61.724004 98.333866 61.34706 98.403296 60.960103 z M 40.789242 63.217847 L 48.956185 63.217847 L 48.956185 64.34646 L 40.789242 64.34646 L 40.789242 63.217847 z M 60.605086 63.217847 L 86.979187 63.217847 L 86.979187 64.34646 L 60.605086 64.34646 L 60.605086 63.217847 z M 97.619881 63.217847 L 105.79199 63.217847 C 105.69991 63.599756 105.59466 63.976248 105.4747 64.34646 L 96.880391 64.34646 C 97.15806 63.993373 97.406486 63.616624 97.619881 63.217847 z M 40.789242 65.47559 L 48.956185 65.47559 L 48.956185 66.604203 L 40.789242 66.604203 L 40.789242 65.47559 z M 60.605086 65.47559 L 86.979187 65.47559 L 86.979187 66.604203 L 60.605086 66.604203 L 60.605086 65.47559 z M 95.791569 65.47559 L 105.05974 65.47559 C 104.90067 65.860291 104.72486 66.235954 104.53625 66.604203 L 94.010282 66.604203 C 94.656681 66.309575 95.255457 65.928929 95.791569 65.47559 z M 40.789242 67.733333 L 48.956185 67.733333 L 48.956185 68.862463 L 40.789242 68.862463 L 40.789242 67.733333 z M 60.605086 67.733333 L 103.89805 67.733333 C 103.65603 68.121313 103.39853 68.498618 103.12394 68.862463 L 60.605086 68.862463 L 60.605086 67.733333 z M 40.789242 69.991077 L 48.956185 69.991077 L 48.956185 71.120207 L 40.789242 71.120207 L 40.789242 69.991077 z M 60.605086 69.991077 L 102.18601 69.991077 C 101.8228 70.387755 101.43721 70.763386 101.03466 71.120207 L 60.605086 71.120207 L 60.605086 69.991077 z M 40.789242 72.24882 L 48.956185 72.24882 L 48.956185 72.489632 C 48.956184 72.803 49.016591 73.101639 49.122066 73.37795 L 40.789242 73.37795 L 40.789242 72.24882 z M 60.605086 72.24882 L 99.599089 72.24882 C 98.994179 72.668946 98.357553 73.046618 97.693778 73.37795 L 60.439722 73.37795 C 60.545186 73.101656 60.605087 72.802977 60.605086 72.489632 L 60.605086 72.24882 z M 40.789242 74.506563 L 49.986613 74.506563 C 50.398224 74.806048 50.903138 74.98457 51.451123 74.98457 L 58.110148 74.98457 C 58.658134 74.984569 59.163048 74.806048 59.574658 74.506563 L 94.68311 74.506563 C 93.450967 74.824189 92.159453 74.993355 90.828048 74.993355 L 86.979187 74.993355 C 86.979187 75.208914 86.972253 75.42304 86.960583 75.635693 L 40.807845 75.635693 C 40.796145 75.423039 40.789242 75.208915 40.789242 74.993355 L 40.789242 74.506563 z M 40.924634 76.764307 L 86.843795 76.764307 C 86.784795 77.147219 86.706931 77.523884 86.611251 77.893437 L 41.157178 77.893437 C 41.06151 77.523884 40.983624 77.147219 40.924634 76.764307 z M 41.513228 79.02205 L 86.254683 79.02205 C 86.110506 79.408948 85.944908 79.785156 85.76169 80.15118 L 42.006222 80.15118 C 41.823024 79.785149 41.657389 79.408955 41.513228 79.02205 z M 42.653727 81.279793 L 85.114185 81.279793 C 84.858123 81.673221 84.57983 82.050567 84.279093 82.408923 L 43.488302 82.408923 C 43.187665 82.050631 42.909708 81.673142 42.653727 81.279793 z M 44.570923 83.537537 L 83.196989 83.537537 C 82.741098 83.952133 82.250441 84.328485 81.732479 84.666667 L 46.034916 84.666667 C 45.517084 84.328526 45.026699 83.952067 44.570923 83.537537 z M 48.255452 85.795797 L 79.511943 85.795797 C 78.242624 86.275878 76.867998 86.540971 75.431055 86.540971 L 52.33634 86.540971 C 50.8994 86.540971 49.524707 86.275878 48.255452 85.795797 z M 33.091003 90.390348 L 94.676392 90.390348 C 95.699903 90.390348 96.62658 90.790593 97.315507 91.439897 L 30.452405 91.439897 C 31.141129 90.790641 32.067538 90.390348 33.091003 90.390348 z M 29.626099 92.569027 L 98.141813 92.569027 C 98.310805 92.91951 98.43139 93.297529 98.487528 93.69764 L 29.280383 93.69764 C 29.336502 93.297523 29.457169 92.919514 29.626099 92.569027 z M 29.286068 94.82677 L 98.481844 94.82677 C 98.420705 95.227515 98.29452 95.605616 98.120109 95.955383 L 29.647803 95.955383 C 29.473457 95.605615 29.347178 95.227516 29.286068 94.82677 z M 30.503048 97.084513 L 97.264864 97.084513 C 96.581324 97.706243 95.675242 98.08807 94.676392 98.08807 L 33.091003 98.08807 C 32.092224 98.08807 31.186383 97.706167 30.503048 97.084513 z " /><path
       d="M 191.83299,95.686326 177.83662,63.126352 q -0.55249,-1.289139 -1.17864,-2.799274 -0.58932,-1.546967 -1.03131,-2.799273 0.1105,0.994478 0.14733,2.651943 0.0737,1.620632 0.0737,2.946604 v 31.675993 h -6.40886 v -51.56557 h 6.04054 l 15.02768,34.696262 q 0.33149,0.810316 0.66298,1.694298 0.3315,0.883981 0.66299,1.767962 0.29466,-0.847149 0.62615,-1.694297 0.3315,-0.883981 0.69982,-1.767963 l 14.95402,-34.696262 h 6.1142 v 51.56557 h -6.40886 V 63.126352 q 0,-1.325972 0.0368,-2.983436 0.0737,-1.694298 0.1105,-2.688776 -0.44199,1.252306 -1.10498,2.872938 -0.62615,1.620633 -1.17864,2.946604 z m 50.31339,0 q -7.73484,0 -12.19158,-5.267054 -4.45673,-5.303887 -4.45673,-14.401527 0,-6.077371 2.02579,-10.497277 2.02579,-4.419906 5.74587,-6.814022 3.75692,-2.430948 8.87665,-2.430948 5.15655,0 8.87664,2.394116 3.75692,2.357283 5.74588,6.777189 2.02579,4.419906 2.02579,10.497277 0,6.07737 -2.02579,10.534109 -2.02579,4.419906 -5.78271,6.814022 -3.72009,2.394115 -8.83981,2.394115 z m 0,-5.966873 q 4.7514,0 7.44017,-3.646422 2.72561,-3.683255 2.72561,-10.128951 0,-6.482529 -2.72561,-10.128952 -2.68877,-3.646422 -7.44017,-3.646422 -4.78823,0 -7.47701,3.646422 -2.68878,3.60959 -2.68878,10.202617 0,6.445696 2.68878,10.092118 2.68878,3.60959 7.47701,3.60959 z m 26.29854,5.082892 V 57.159479 h 6.40887 v 4.935562 q 1.28914,-2.872939 3.53592,-4.346241 2.28362,-1.473302 5.37755,-1.473302 3.42543,0 5.81955,1.915293 l -0.95765,6.040538 q -1.21547,-0.847149 -2.54145,-1.215474 -1.28914,-0.405158 -2.8361,-0.405158 -2.54145,0 -4.41991,1.362804 -1.87846,1.362804 -2.9466,3.830585 -1.03131,2.467781 -1.03131,5.78271 v 21.215549 z m 28.28746,0 V 57.159479 h 6.40887 v 3.830585 q 1.73113,-2.394115 4.16207,-3.535924 2.43095,-1.178642 5.56172,-1.178642 6.85085,0 10.16578,4.162078 3.31493,4.125246 3.31493,12.70723 v 21.657539 h -6.40886 V 72.039829 q 0,-4.751399 -2.13629,-7.292845 -2.09945,-2.578278 -5.96687,-2.578278 -4.30941,0 -6.51936,2.467781 -2.17312,2.430948 -2.17312,7.256012 v 22.909846 z m 41.54709,0 V 57.159479 h 6.40886 v 37.642866 z m 3.1676,-44.49372 q -1.65747,0 -2.83611,-1.141809 -1.14181,-1.178642 -1.14181,-2.836107 0,-1.731129 1.14181,-2.909771 1.17864,-1.215474 2.83611,-1.215474 1.73113,0 2.87294,1.215474 1.17864,1.178642 1.17864,2.909771 0,1.657465 -1.17864,2.836107 -1.14181,1.141809 -2.87294,1.141809 z m 25.9301,45.377701 q -3.86742,0 -5.93004,-2.32045 -2.02579,-2.320451 -2.02579,-6.666692 V 62.758027 h -6.11421 v -5.598548 h 6.11421 V 44.710077 l 6.40886,-3.093934 v 15.543336 h 9.2818 v 5.598548 h -9.2818 v 21.804869 q 0,2.688777 0.92081,3.941083 0.95765,1.215474 2.98344,1.215474 2.57828,0 5.59855,-1.988957 l -0.73665,6.261533 q -1.65747,0.883981 -3.46226,1.289139 -1.76796,0.405158 -3.75692,0.405158 z m 31.16034,0 q -5.15655,0 -8.91347,-2.541445 -3.75692,-2.541446 -5.78271,-6.998185 -2.02579,-4.456739 -2.02579,-10.202616 0,-6.224701 2.09945,-10.607775 2.09946,-4.419906 5.85638,-6.740356 3.75692,-2.320451 8.76614,-2.320451 4.23575,0 7.77167,1.915293 3.53593,1.87846 5.63538,5.856375 2.13629,3.941083 2.13629,10.128951 0,0.883981 -0.0737,2.062623 -0.0368,1.141809 -0.14733,2.357283 h -25.48812 q 0.36833,3.425427 1.6943,6.003706 1.32597,2.578278 3.49909,4.05158 2.17312,1.43647 5.11972,1.43647 2.39412,0 4.41991,-0.847149 2.06262,-0.847148 3.83058,-2.615111 l 3.75692,4.198911 q -2.09945,2.099455 -5.23022,3.499092 -3.09393,1.362804 -6.92452,1.362804 z m -10.23945,-22.68885 h 19.30026 q 0,-3.204432 -1.06814,-5.709046 -1.03131,-2.541446 -3.0571,-3.977915 -2.0258,-1.436469 -4.93557,-1.436469 -4.08841,0 -7.03501,2.651943 -2.90978,2.651944 -3.20444,8.471487 z m 45.89343,22.68885 q -6.1142,0 -9.6133,-3.388594 -3.49909,-3.388595 -3.49909,-9.281803 0,-3.793752 1.73113,-6.593026 1.73113,-2.799274 4.89873,-4.309409 3.1676,-1.546967 7.44017,-1.546967 2.76245,0 5.15656,0.626154 2.43095,0.58932 4.56724,1.804795 v -2.651944 q 0,-4.383073 -1.98896,-6.408864 -1.98896,-2.062622 -6.18787,-2.062622 -2.68877,0 -5.59855,0.994478 -2.87293,0.994479 -5.37755,2.762442 l -1.84163,-5.377553 q 2.83611,-1.87846 6.4457,-2.909771 3.64642,-1.068144 7.18235,-1.068144 6.70352,0 10.05528,3.425427 3.35177,3.388595 3.35177,10.128951 v 24.972469 h -6.04054 v -3.462259 q -2.20995,2.099455 -4.9724,3.241264 -2.76244,1.104976 -5.70904,1.104976 z m 0.95764,-5.598547 q 2.61512,0 5.15656,-1.289139 2.57828,-1.28914 4.56724,-3.646423 v -6.482529 q -1.87846,-1.178641 -4.27258,-1.841627 -2.39411,-0.662986 -4.56723,-0.662986 -4.12525,0 -6.51937,1.87846 -2.39411,1.841628 -2.39411,5.046059 0,3.241265 2.13629,5.119725 2.13628,1.87846 5.8932,1.87846 z m 50.90261,19.447591 V 91.26642 q -2.02579,2.246786 -4.34624,3.351763 -2.28361,1.068143 -5.15655,1.068143 -4.82507,0 -8.32416,-2.394115 -3.49909,-2.394116 -5.41438,-6.814022 -1.87846,-4.419906 -1.87846,-10.460444 0,-6.114204 1.87846,-10.53411 1.87846,-4.419906 5.30388,-6.814021 3.46226,-2.394116 8.21366,-2.394116 2.72561,0 5.04606,0.994479 2.35728,0.957646 4.67773,3.057101 v -3.167599 h 6.40887 v 49.502951 z m -8.91347,-19.815917 q 2.43095,0 4.71456,-1.289139 2.28362,-1.325972 4.19891,-3.867418 V 67.251598 q -1.4733,-2.504614 -3.75692,-3.793753 -2.28361,-1.289139 -5.15655,-1.289139 -4.34624,0 -7.03502,3.793753 -2.68878,3.793752 -2.68878,10.055286 0,6.629859 2.50462,10.165784 2.54144,3.535924 7.21918,3.535924 z m 40.81043,5.966873 q -6.96135,0 -10.34995,-4.125245 -3.35176,-4.125246 -3.35176,-12.670397 V 57.159479 h 6.40887 V 79.84833 q 0,4.788231 2.09945,7.329677 2.09946,2.541446 6.00371,2.541446 4.3094,0 6.48253,-2.46778 2.20995,-2.467781 2.20995,-7.256013 V 57.159479 h 6.40886 v 37.642866 h -6.40886 v -3.60959 q -1.8048,2.320451 -4.08841,3.425428 -2.24679,1.068143 -5.41439,1.068143 z m 42.28381,0 q -5.15656,0 -8.91348,-2.541445 -3.75692,-2.541446 -5.78271,-6.998185 -2.02579,-4.456739 -2.02579,-10.202616 0,-6.224701 2.09945,-10.607775 2.09946,-4.419906 5.85638,-6.740356 3.75692,-2.320451 8.76615,-2.320451 4.23574,0 7.77166,1.915293 3.53593,1.87846 5.63538,5.856375 2.13629,3.941083 2.13629,10.128951 0,0.883981 -0.0737,2.062623 -0.0368,1.141809 -0.14733,2.357283 h -25.48813 q 0.36833,3.425427 1.6943,6.003706 1.32597,2.578278 3.49909,4.05158 2.17312,1.43647 5.11973,1.43647 2.39411,0 4.4199,-0.847149 2.06262,-0.847148 3.83059,-2.615111 l 3.75692,4.198911 q -2.09946,2.099455 -5.23023,3.499092 -3.09393,1.362804 -6.92451,1.362804 z m -10.23945,-22.68885 h 19.30025 q 0,-3.204432 -1.06814,-5.709046 -1.03131,-2.541446 -3.0571,-3.977915 -2.02579,-1.436469 -4.93556,-1.436469 -4.08842,0 -7.03502,2.651943 -2.90977,2.651944 -3.20443,8.471487 z"
       id="text30933"
       style="font-size:73.6651px;font-family:Overpass;-inkscape-font-specification:Overpass;fill:url(#linearGradient31429);stroke-width:1.91838"
       aria-label="Morniteaque" /></g></svg>
