<?xml version="1.0" encoding="UTF-8" standalone="no"?>
<!-- Created with Inkscape (http://www.inkscape.org/) -->

<svg
   width="4000"
   height="1500"
   viewBox="0 0 1058.3333 396.87501"
   version="1.1"
   id="svg5"
   xml:space="preserve"
   inkscape:version="1.2.2 (b0a8486541, 2022-12-01)"
   sodipodi:docname="header-dark.svg"
   inkscape:export-filename="header-dark.png"
   inkscape:export-xdpi="96"
   inkscape:export-ydpi="96"
   xmlns:inkscape="http://www.inkscape.org/namespaces/inkscape"
   xmlns:sodipodi="http://sodipodi.sourceforge.net/DTD/sodipodi-0.dtd"
   xmlns:xlink="http://www.w3.org/1999/xlink"
   xmlns="http://www.w3.org/2000/svg"
   xmlns:svg="http://www.w3.org/2000/svg"><sodipodi:namedview
     id="namedview7"
     pagecolor="#ffffff"
     bordercolor="#999999"
     borderopacity="1"
     inkscape:showpageshadow="0"
     inkscape:pageopacity="0"
     inkscape:pagecheckerboard="0"
     inkscape:deskcolor="#d1d1d1"
     inkscape:document-units="mm"
     showgrid="true"
     inkscape:zoom="0.28409761"
     inkscape:cx="2346.0247"
     inkscape:cy="278.07344"
     inkscape:window-width="1280"
     inkscape:window-height="1371"
     inkscape:window-x="20"
     inkscape:window-y="20"
     inkscape:window-maximized="0"
     inkscape:current-layer="layer1"
     showguides="true"><inkscape:grid
       spacingx="8.4666666"
       spacingy="8.4666666"
       type="xygrid"
       id="grid22578"
       originx="0"
       originy="0" /></sodipodi:namedview><defs
     id="defs2"><linearGradient
       inkscape:collect="always"
       id="linearGradient4792"><stop
         style="stop-color:#100704;stop-opacity:1;"
         offset="0"
         id="stop4788" /><stop
         style="stop-color:#000000;stop-opacity:1;"
         offset="1"
         id="stop4790" /></linearGradient><linearGradient
       inkscape:collect="always"
       id="linearGradient4344"><stop
         style="stop-color:#f58945;stop-opacity:1;"
         offset="0"
         id="stop4441" /><stop
         style="stop-color:#aa585b;stop-opacity:1;"
         offset="0.33837891"
         id="stop4439" /><stop
         style="stop-color:#573170;stop-opacity:1;"
         offset="0.69117999"
         id="stop4437" /><stop
         style="stop-color:#2d1d7a;stop-opacity:1;"
         offset="1"
         id="stop4342" /></linearGradient><inkscape:path-effect
       effect="fillet_chamfer"
       id="path-effect362"
       is_visible="true"
       lpeversion="1"
       nodesatellites_param="F,0,0,1,0,1.5875,0,1 @ F,0,0,1,0,1.5875,0,1 @ F,0,0,1,0,1.5875,0,1 @ F,0,0,1,0,1.5875,0,1"
       unit="px"
       method="auto"
       mode="F"
       radius="6"
       chamfer_steps="1"
       flexible="false"
       use_knot_distance="true"
       apply_no_radius="true"
       apply_with_radius="true"
       only_selected="false"
       hide_knots="false" /><linearGradient
       inkscape:collect="always"
       xlink:href="#linearGradient4344"
       id="linearGradient4346"
       x1="103.22574"
       y1="172.02928"
       x2="103.22574"
       y2="69.43425"
       gradientUnits="userSpaceOnUse"
       gradientTransform="matrix(4.6214042,0,0,1.3204019,-104.51467,-91.681282)" /><filter
       style="color-interpolation-filters:sRGB"
       inkscape:label="Drop Shadow"
       id="filter15867"
       x="-1.0830619"
       y="-1.5472456"
       width="3.1661236"
       height="4.094491"><feFlood
         flood-opacity="0.498039"
         flood-color="rgb(0,0,0)"
         result="flood"
         id="feFlood15857" /><feComposite
         in="SourceGraphic"
         in2="flood"
         operator="in"
         result="composite1"
         id="feComposite15859" /><feGaussianBlur
         in="composite1"
         stdDeviation="34.7404"
         result="blur"
         id="feGaussianBlur15861" /><feOffset
         dx="0"
         dy="0"
         result="offset"
         id="feOffset15863" /><feComposite
         in="SourceGraphic"
         in2="offset"
         operator="over"
         result="composite2"
         id="feComposite15865" /></filter><filter
       style="color-interpolation-filters:sRGB"
       inkscape:label="Drop Shadow"
       id="filter16734"
       x="-0.178014"
       y="-0.77566868"
       width="1.356028"
       height="2.5513375"><feFlood
         flood-opacity="0.498039"
         flood-color="rgb(0,0,0)"
         result="flood"
         id="feFlood16724" /><feComposite
         in="SourceGraphic"
         in2="flood"
         operator="in"
         result="composite1"
         id="feComposite16726" /><feGaussianBlur
         in="composite1"
         stdDeviation="10.0479"
         result="blur"
         id="feGaussianBlur16728" /><feOffset
         dx="0"
         dy="0"
         result="offset"
         id="feOffset16730" /><feComposite
         in="SourceGraphic"
         in2="offset"
         operator="over"
         result="composite2"
         id="feComposite16732" /></filter><inkscape:path-effect
       effect="fillet_chamfer"
       id="path-effect362-0"
       is_visible="true"
       lpeversion="1"
       nodesatellites_param="F,0,0,1,0,1.5875,0,1 @ F,0,0,1,0,1.5875,0,1 @ F,0,0,1,0,1.5875,0,1 @ F,0,0,1,0,1.5875,0,1"
       unit="px"
       method="auto"
       mode="F"
       radius="6"
       chamfer_steps="1"
       flexible="false"
       use_knot_distance="true"
       apply_no_radius="true"
       apply_with_radius="true"
       only_selected="false"
       hide_knots="false" /><linearGradient
       inkscape:collect="always"
       xlink:href="#linearGradient4344"
       id="linearGradient4346-6"
       x1="103.22574"
       y1="172.02928"
       x2="103.22574"
       y2="69.43425"
       gradientUnits="userSpaceOnUse"
       gradientTransform="matrix(1.3204019,0,0,1.3204019,-68.56613,-91.681116)" /><filter
       style="color-interpolation-filters:sRGB"
       inkscape:label="Drop Shadow"
       id="filter15867-2"
       x="-1.0830619"
       y="-1.5472456"
       width="3.1661236"
       height="4.094491"><feFlood
         flood-opacity="0.498039"
         flood-color="rgb(0,0,0)"
         result="flood"
         id="feFlood15857-6" /><feComposite
         in="SourceGraphic"
         in2="flood"
         operator="in"
         result="composite1"
         id="feComposite15859-1" /><feGaussianBlur
         in="composite1"
         stdDeviation="34.7404"
         result="blur"
         id="feGaussianBlur15861-8" /><feOffset
         dx="0"
         dy="0"
         result="offset"
         id="feOffset15863-7" /><feComposite
         in="SourceGraphic"
         in2="offset"
         operator="over"
         result="composite2"
         id="feComposite15865-9" /></filter><filter
       style="color-interpolation-filters:sRGB"
       inkscape:label="Drop Shadow"
       id="filter16734-2"
       x="-0.178014"
       y="-0.77566868"
       width="1.356028"
       height="2.5513375"><feFlood
         flood-opacity="0.498039"
         flood-color="rgb(0,0,0)"
         result="flood"
         id="feFlood16724-0" /><feComposite
         in="SourceGraphic"
         in2="flood"
         operator="in"
         result="composite1"
         id="feComposite16726-2" /><feGaussianBlur
         in="composite1"
         stdDeviation="10.0479"
         result="blur"
         id="feGaussianBlur16728-3" /><feOffset
         dx="0"
         dy="0"
         result="offset"
         id="feOffset16730-7" /><feComposite
         in="SourceGraphic"
         in2="offset"
         operator="over"
         result="composite2"
         id="feComposite16732-5" /></filter><linearGradient
       inkscape:collect="always"
       xlink:href="#linearGradient4344"
       id="linearGradient31149"
       gradientUnits="userSpaceOnUse"
       gradientTransform="matrix(1.3204019,0,0,1.3204019,-68.56613,-91.681116)"
       x1="103.22574"
       y1="172.02928"
       x2="103.22574"
       y2="69.43425" /><linearGradient
       inkscape:collect="always"
       xlink:href="#linearGradient4344"
       id="linearGradient943"
       gradientUnits="userSpaceOnUse"
       gradientTransform="matrix(1.3204019,0,0,1.3203987,-68.56613,-91.680889)"
       x1="103.22574"
       y1="172.02928"
       x2="103.22574"
       y2="69.43425" /><filter
       style="color-interpolation-filters:sRGB"
       inkscape:label="Drop Shadow"
       id="filter2840"
       x="-0.093574624"
       y="-0.13602181"
       width="1.1871492"
       height="1.2720436"><feFlood
         flood-opacity="1"
         flood-color="rgb(255,255,255)"
         result="flood"
         id="feFlood2830" /><feComposite
         in="SourceGraphic"
         in2="flood"
         operator="in"
         result="composite1"
         id="feComposite2832" /><feGaussianBlur
         in="composite1"
         stdDeviation="3"
         result="blur"
         id="feGaussianBlur2834" /><feOffset
         dx="0"
         dy="0"
         result="offset"
         id="feOffset2836" /><feComposite
         in="SourceGraphic"
         in2="offset"
         operator="over"
         result="composite2"
         id="feComposite2838" /></filter><filter
       style="color-interpolation-filters:sRGB"
       inkscape:label="Drop Shadow"
       id="filter3578"
       x="-0.017725754"
       y="-0.10600806"
       width="1.0354515"
       height="1.2120161"><feFlood
         flood-opacity="1"
         flood-color="rgb(255,255,255)"
         result="flood"
         id="feFlood3568" /><feComposite
         in="SourceGraphic"
         in2="flood"
         operator="in"
         result="composite1"
         id="feComposite3570" /><feGaussianBlur
         in="composite1"
         stdDeviation="3"
         result="blur"
         id="feGaussianBlur3572" /><feOffset
         dx="0"
         dy="0"
         result="offset"
         id="feOffset3574" /><feComposite
         in="SourceGraphic"
         in2="offset"
         operator="over"
         result="composite2"
         id="feComposite3576" /></filter><linearGradient
       inkscape:collect="always"
       xlink:href="#linearGradient4792"
       id="linearGradient4794"
       x1="388.25497"
       y1="135.46666"
       x2="388.25497"
       y2="0"
       gradientUnits="userSpaceOnUse"
       gradientTransform="matrix(2.2321452,0,0,2.9296878,-302.38128,0)" /></defs><g
     inkscape:label="Layer 1"
     inkscape:groupmode="layer"
     id="layer1"><rect
       style="opacity:1;fill:url(#linearGradient4794);fill-opacity:1;stroke-width:8.86736;stop-color:#000000"
       id="rect31196"
       width="1058.3333"
       height="396.875"
       x="1.7763568e-15"
       y="0" /><g
       id="g1046"
       transform="translate(237.75296,130.70417)"><rect
         style="fill:url(#linearGradient943);fill-opacity:1;stroke-width:1.32292;stop-color:#000000"
         id="rect4278-3"
         width="135.46666"
         height="135.46666"
         x="-3.5527137e-15"
         y="0" /><rect
         style="fill:#000000;fill-opacity:0.648732;stroke-width:1.32292;stop-color:#000000"
         id="rect946"
         width="135.46666"
         height="135.46666"
         x="-3.5527137e-15"
         y="0" /><path
         id="rect4278"
         style="fill:url(#linearGradient4346);fill-opacity:1;stroke-width:2.47495;filter:url(#filter3578);stop-color:#000000"
         d="m 366.05052,41.616064 -6.40839,3.093868 v 12.44937 h -6.11435 v 5.598624 h 6.11435 v 23.941175 c 0,5.303882 2.28338,8.987048 7.95559,8.987048 2.9466,0 5.23024,-0.662643 7.21919,-1.693953 l 0.73691,-6.261634 c -1.62063,1.031311 -3.46234,1.989026 -5.59862,1.989026 -3.31493,0 -3.90468,-2.283855 -3.90468,-5.156791 V 62.757926 h 9.28213 v -5.598624 h -9.28213 z m -24.08845,0.589629 c -2.20995,0 -3.97753,1.841197 -3.97753,4.124812 0,2.209951 1.76758,3.978052 3.97753,3.978052 2.28362,0 4.05195,-1.768101 4.05195,-3.978052 0,-2.283615 -1.76833,-4.124812 -4.05195,-4.124812 z m -172.52332,1.030944 v 51.565845 h 6.40891 V 63.126379 c 0,-1.76796 -0.0738,-4.272654 -0.22117,-5.598624 0.58932,1.694295 1.54722,3.977994 2.2102,5.598624 l 13.70149,32.55977 14.14384,-32.412492 c 0.73665,-1.76796 1.69426,-4.124987 2.28358,-5.819283 -0.0737,1.325971 -0.14728,3.904045 -0.14728,5.672005 v 31.676103 h 6.40891 V 43.236637 h -6.11435 l -15.02751,34.696591 c -0.44199,1.104975 -0.95769,2.357345 -1.32602,3.462321 l -1.32601,-3.462321 -14.95413,-34.696591 z m 72.48653,13.038998 c -10.0921,0 -16.64859,7.366223 -16.64859,19.741947 0,12.44939 6.55649,19.668567 16.64859,19.668567 10.09211,0 16.64808,-7.366223 16.64808,-19.741947 0,-12.44939 -6.55597,-19.668567 -16.64808,-19.668567 z m 41.98917,0 c -4.1989,0 -7.21937,2.062366 -8.91366,5.819283 v -4.935616 h -6.40892 v 37.64318 h 6.40892 V 73.586723 c 0,-8.545143 4.78835,-10.976074 8.39793,-10.976074 2.57828,0 4.19881,0.810257 5.37745,1.620573 l 0.95757,-6.040459 c -1.32597,-1.104975 -3.38834,-1.915128 -5.81929,-1.915128 z m 29.4659,0 c -4.05157,0 -7.36667,1.47318 -9.72395,4.714441 v -3.830774 h -6.40891 v 37.64318 h 6.40891 V 71.892253 c 0,-7.292838 3.75694,-9.723438 8.69249,-9.723438 4.6409,0 8.10338,2.725725 8.10338,9.871232 v 22.762435 h 6.40892 V 73.144889 c 0,-12.154729 -4.93569,-16.869254 -13.48084,-16.869254 z m 85.37774,0 c -10.01844,0 -16.72198,7.219177 -16.72198,19.668567 0,11.491744 6.40888,19.741947 16.72198,19.741947 5.08289,0 9.35554,-2.062448 12.15481,-4.861719 l -3.90467,-4.345988 c -2.35728,2.357281 -5.22993,3.388424 -8.10286,3.388424 -5.67221,0 -9.79741,-4.493912 -10.31307,-11.418424 h 25.48785 c 0.14733,-1.473301 0.22118,-3.093451 0.22118,-4.272091 0,-12.375725 -7.07176,-17.900716 -15.54324,-17.900716 z m 39.33713,0 c -5.6722,0 -10.60784,1.988579 -13.62811,3.977535 l 1.84124,5.377966 c 2.79927,-1.988956 6.77716,-3.756877 10.97607,-3.756877 4.86189,0 8.17728,1.841466 8.17728,8.471318 v 2.652034 c -3.09393,-1.76796 -6.40903,-2.430859 -9.72396,-2.430859 -7.29283,0 -14.06994,3.756896 -14.06994,12.449369 0,8.397813 5.45122,12.670028 13.11238,12.670028 4.49357,0 8.17691,-1.988707 10.68152,-4.345988 v 3.462321 h 6.04046 V 69.829846 c 0,-11.565409 -7.51373,-13.554211 -13.40694,-13.554211 z m 37.71605,0 c -9.57646,0 -15.39596,7.587218 -15.39596,19.741947 0,12.44939 6.26167,19.668567 15.61713,19.668567 4.4199,0 7.21917,-1.841609 9.50278,-4.419885 v 18.269166 l 6.40891,-2.87321 V 57.159302 h -6.40891 v 3.167765 c -2.28361,-2.062621 -5.15672,-4.051432 -9.72395,-4.051432 z m 84.27289,0 c -10.01844,0 -16.72198,7.219177 -16.72198,19.668567 0,11.491744 6.40888,19.741947 16.72198,19.741947 5.08289,0 9.35554,-2.062448 12.15481,-4.861719 l -3.90415,-4.345988 c -2.35728,2.357281 -5.23045,3.388424 -8.10338,3.388424 -5.67221,0 -9.79741,-4.493912 -10.31307,-11.418424 h 25.48837 c 0.14733,-1.473301 0.22066,-3.093451 0.22066,-4.272091 0,-12.375725 -7.07176,-17.900716 -15.54324,-17.900716 z m -221.28934,0.883667 v 37.64318 h 6.40892 v -37.64318 z m 164.93567,0 v 21.73149 c 0,12.081064 4.86169,16.795357 13.70149,16.795357 3.97791,0 6.99817,-1.252005 9.50278,-4.493266 v 3.609599 h 6.40891 v -37.64318 h -6.40891 v 22.836332 c 0,7.366503 -3.75642,9.723954 -8.69197,9.723954 -4.6409,0 -8.10339,-2.725724 -8.10339,-9.871232 V 57.159302 Z m -104.9724,4.788338 c 3.97791,0 8.98676,2.504828 9.06043,11.049971 H 388.5184 c 0.36833,-7.734827 4.78848,-11.049971 10.23969,-11.049971 z m 161.32607,0 c 3.97791,0 8.98728,2.504828 9.06094,11.049971 h -19.30011 c 0.36833,-7.734827 4.78796,-11.049971 10.23917,-11.049971 z m -318.15888,0.221175 c 6.40886,0 10.16579,5.230244 10.16579,13.775387 0,8.618808 -3.83059,13.775386 -10.16579,13.775386 -6.40885,0 -10.16578,-5.156863 -10.16578,-13.702006 0,-8.766138 3.75693,-13.848767 10.16578,-13.848767 z m 234.69627,0 c 3.60959,0 6.85105,1.620638 8.91367,5.082894 v 17.311088 c -1.69429,2.209951 -4.56743,5.156791 -8.91367,5.156791 -6.26152,0 -9.72343,-4.862203 -9.72343,-13.702006 0,-7.882158 3.60924,-13.848767 9.72343,-13.848767 z m -39.99962,13.922664 c 3.09393,0 6.55615,1.105122 8.83977,2.504757 v 6.482292 c -2.13629,2.504611 -5.52505,4.935616 -9.72396,4.935616 -5.15655,0 -8.02948,-2.799116 -8.02948,-6.998023 0,-4.788226 4.05178,-6.924642 8.91367,-6.924642 z" /><g
         inkscape:label="Layer 1"
         id="layer1-9"
         style="filter:url(#filter2840)"><path
           id="rect4278-22"
           style="fill:url(#linearGradient31149);fill-opacity:1;stroke-width:1.32291;stop-color:#000000"
           d="m 42.10389,45.155383 c -0.361223,0.316463 -0.662328,0.698373 -0.884701,1.12913 h 12.131043 v -1.12913 z m 14.107666,0 v 1.12913 h 42.348836 c -0.75728,-0.440743 -1.554187,-0.820994 -2.386417,-1.12913 z m -15.36547,2.257744 c -0.03447,0.207479 -0.05684,0.418725 -0.05684,0.636137 v 0.492993 h 12.56099 v -1.12913 z m 15.36547,0 v 1.12913 h 45.327984 c -0.41287,-0.40011 -0.84777,-0.776914 -1.30328,-1.12913 z M 40.789242,49.67087 V 50.8 h 12.56099 v -1.12913 z m 15.422314,0 V 50.8 h 47.249834 c -0.27208,-0.389999 -0.56102,-0.76666 -0.86714,-1.12913 z m -15.422314,2.25826 v 1.128613 h 12.56099 V 51.92913 Z m 15.422314,0 v 1.128613 H 86.979187 V 51.92913 Z m 35.274333,0 c 1.239157,0.105381 2.394876,0.504627 3.397725,1.128613 h 9.884156 c -0.18118,-0.385574 -0.37873,-0.76133 -0.59015,-1.128613 z m -50.696647,2.257743 v 1.128614 h 12.56099 v -1.128614 z m 15.422314,0 v 1.128614 h 30.767631 v -1.128614 z m 40.086959,0 c 0.342102,0.345842 0.652335,0.7234 0.924491,1.128614 h 8.393804 c -0.11049,-0.382351 -0.23337,-0.759137 -0.37207,-1.128614 z m -55.509273,2.257744 v 1.128613 h 12.56099 v -1.128613 z m 15.422314,0 v 1.128613 h 30.767631 v -1.128613 z m 41.637252,0 c 0.163317,0.362414 0.299475,0.739135 0.40566,1.128613 h 7.833632 c -0.05,-0.380477 -0.11036,-0.757418 -0.18759,-1.128613 z M 40.789242,58.70236 v 1.128613 h 8.332307 c 0.173444,-0.455436 0.475471,-0.846041 0.862997,-1.128613 z m 18.787483,0 c 0.387543,0.282585 0.690074,0.673151 0.863513,1.128613 H 86.979187 V 58.70236 Z m 38.895817,0 c 0.03412,0.293624 0.05374,0.59186 0.05374,0.894519 0,0.07857 -0.0039,0.156081 -0.0062,0.234094 h 7.698238 c 10e-4,-0.07825 0.006,-0.155562 0.006,-0.234094 0,-0.300357 -0.0109,-0.598417 -0.0279,-0.894519 z m -57.6833,2.257743 v 1.128614 h 8.166943 v -1.128614 z m 19.815844,0 v 1.128614 h 26.374101 v -1.128614 z m 37.79821,0 c -0.06943,0.386957 -0.167922,0.763901 -0.293005,1.128614 h 7.910629 c 0.0605,-0.371894 0.10665,-0.748275 0.14004,-1.128614 z m -57.614054,2.257744 v 1.128613 h 8.166943 v -1.128613 z m 19.815844,0 v 1.128613 h 26.374101 v -1.128613 z m 37.014795,0 c -0.213395,0.398778 -0.461821,0.775526 -0.73949,1.128613 h 8.594309 c 0.11996,-0.370212 0.22521,-0.746703 0.31729,-1.128613 z M 40.789242,65.47559 v 1.128613 h 8.166943 V 65.47559 Z m 19.815844,0 v 1.128613 H 86.979187 V 65.47559 Z m 35.186483,0 c -0.536113,0.453339 -1.134888,0.833984 -1.781287,1.128613 h 10.525968 c 0.18861,-0.36825 0.36442,-0.743912 0.52349,-1.128613 z m -55.002327,2.257743 v 1.12913 h 8.166943 v -1.12913 z m 19.815844,0 v 1.12913 h 42.518854 c 0.27459,-0.363846 0.53209,-0.74115 0.77411,-1.12913 z m -19.815844,2.257744 v 1.12913 h 8.166943 v -1.12913 z m 19.815844,0 v 1.12913 h 40.429574 c 0.40255,-0.356821 0.78814,-0.732451 1.15135,-1.12913 z M 40.789242,72.24882 v 1.12913 h 8.332824 C 49.016591,73.101639 48.956184,72.803 48.956185,72.489632 V 72.24882 Z m 19.815844,0 v 0.240812 c 10e-7,0.313345 -0.0599,0.612024 -0.165364,0.888318 h 37.254056 c 0.663775,-0.331332 1.300401,-0.709004 1.905311,-1.12913 z m -19.815844,2.257743 v 0.486792 c 0,0.21556 0.0069,0.429683 0.0186,0.642338 H 86.96058 c 0.01167,-0.212654 0.0186,-0.426779 0.0186,-0.642338 h 3.848861 c 1.331407,0 2.622918,-0.169166 3.855062,-0.486792 H 59.574658 c -0.411611,0.299485 -0.916524,0.478006 -1.46451,0.478007 h -6.659025 c -0.547986,0 -1.052899,-0.178522 -1.46451,-0.478007 z m 0.135392,2.257744 c 0.05899,0.382913 0.136876,0.759577 0.232544,1.12913 h 45.454073 c 0.09568,-0.369553 0.173544,-0.746217 0.232544,-1.12913 z m 0.588594,2.257743 c 0.144161,0.386905 0.309796,0.763099 0.492994,1.12913 H 85.76169 c 0.183218,-0.366024 0.348815,-0.742232 0.492993,-1.12913 z m 1.140499,2.257743 c 0.255981,0.393349 0.533938,0.770837 0.834575,1.12913 h 40.790791 c 0.300737,-0.358357 0.57903,-0.735702 0.835092,-1.12913 z m 1.917196,2.257744 c 0.455777,0.414531 0.94616,0.790989 1.463993,1.12913 h 35.697563 c 0.517963,-0.338182 1.008619,-0.714533 1.46451,-1.12913 z m 3.684529,2.25826 c 1.269256,0.480082 2.643946,0.745174 4.080888,0.745174 h 23.094715 c 1.436945,0 2.811568,-0.265092 4.080888,-0.745174 z" /><path
           id="rect4278-2"
           style="fill:url(#linearGradient4346-6);fill-opacity:1;stroke-width:1.32291;stop-color:#000000"
           d="m 33.091003,90.390348 c -1.023467,0 -1.949872,0.400293 -2.638598,1.049549 h 66.863102 c -0.688929,-0.649304 -1.615602,-1.049549 -2.639115,-1.049549 z m -3.464904,2.178679 c -0.16893,0.350489 -0.289597,0.728496 -0.345716,1.128613 h 69.207145 c -0.05614,-0.400111 -0.176723,-0.778128 -0.345715,-1.128613 z m -0.340031,2.257743 c 0.06111,0.400746 0.187389,0.778843 0.361735,1.128613 h 68.472306 c 0.174411,-0.349769 0.300596,-0.727868 0.361735,-1.128613 z m 1.21698,2.257743 c 0.683337,0.621654 1.589174,1.003557 2.587955,1.003557 h 61.585389 c 0.998852,0 1.90493,-0.381827 2.588472,-1.003557 z" /></g></g></g></svg>
