<?xml version="1.0" encoding="UTF-8" standalone="no"?>
<!-- Created with Inkscape (http://www.inkscape.org/) -->

<svg
   width="512"
   height="512"
   viewBox="0 0 135.46666 135.46667"
   version="1.1"
   id="svg5"
   xml:space="preserve"
   inkscape:version="1.2.2 (b0a8486541, 2022-12-01)"
   sodipodi:docname="icon-light.svg"
   inkscape:export-filename="icon-light.png"
   inkscape:export-xdpi="96"
   inkscape:export-ydpi="96"
   xmlns:inkscape="http://www.inkscape.org/namespaces/inkscape"
   xmlns:sodipodi="http://sodipodi.sourceforge.net/DTD/sodipodi-0.dtd"
   xmlns:xlink="http://www.w3.org/1999/xlink"
   xmlns="http://www.w3.org/2000/svg"
   xmlns:svg="http://www.w3.org/2000/svg"><sodipodi:namedview
     id="namedview7"
     pagecolor="#ffffff"
     bordercolor="#999999"
     borderopacity="1"
     inkscape:showpageshadow="0"
     inkscape:pageopacity="0"
     inkscape:pagecheckerboard="0"
     inkscape:deskcolor="#d1d1d1"
     inkscape:document-units="mm"
     showgrid="true"
     inkscape:zoom="1.6070988"
     inkscape:cx="523.61435"
     inkscape:cy="338.49817"
     inkscape:window-width="2560"
     inkscape:window-height="1371"
     inkscape:window-x="0"
     inkscape:window-y="0"
     inkscape:window-maximized="1"
     inkscape:current-layer="layer1"
     showguides="true"><inkscape:grid
       spacingx="8.4666666"
       spacingy="8.4666666"
       type="xygrid"
       id="grid22578" /></sodipodi:namedview><defs
     id="defs2"><linearGradient
       inkscape:collect="always"
       id="linearGradient32417"><stop
         style="stop-color:#f2f2f2;stop-opacity:1;"
         offset="0"
         id="stop32413" /><stop
         style="stop-color:#ffffff;stop-opacity:1;"
         offset="1"
         id="stop32415" /></linearGradient><linearGradient
       inkscape:collect="always"
       id="linearGradient4344"><stop
         style="stop-color:#f58945;stop-opacity:1;"
         offset="0"
         id="stop4441" /><stop
         style="stop-color:#aa585b;stop-opacity:1;"
         offset="0.33837891"
         id="stop4439" /><stop
         style="stop-color:#573170;stop-opacity:1;"
         offset="0.69117999"
         id="stop4437" /><stop
         style="stop-color:#2d1d7a;stop-opacity:1;"
         offset="1"
         id="stop4342" /></linearGradient><inkscape:path-effect
       effect="fillet_chamfer"
       id="path-effect362"
       is_visible="true"
       lpeversion="1"
       nodesatellites_param="F,0,0,1,0,1.5875,0,1 @ F,0,0,1,0,1.5875,0,1 @ F,0,0,1,0,1.5875,0,1 @ F,0,0,1,0,1.5875,0,1"
       unit="px"
       method="auto"
       mode="F"
       radius="6"
       chamfer_steps="1"
       flexible="false"
       use_knot_distance="true"
       apply_no_radius="true"
       apply_with_radius="true"
       only_selected="false"
       hide_knots="false" /><linearGradient
       inkscape:collect="always"
       xlink:href="#linearGradient4344"
       id="linearGradient4346"
       x1="103.22574"
       y1="172.02928"
       x2="103.22574"
       y2="69.43425"
       gradientUnits="userSpaceOnUse"
       gradientTransform="matrix(1.3204019,0,0,1.3204019,-68.56613,-91.681116)" /><filter
       style="color-interpolation-filters:sRGB;"
       inkscape:label="Drop Shadow"
       id="filter15867"
       x="-1.0830619"
       y="-1.5472456"
       width="3.1661237"
       height="4.0944912"><feFlood
         flood-opacity="0.498039"
         flood-color="rgb(0,0,0)"
         result="flood"
         id="feFlood15857" /><feComposite
         in="SourceGraphic"
         in2="flood"
         operator="in"
         result="composite1"
         id="feComposite15859" /><feGaussianBlur
         in="composite1"
         stdDeviation="34.7404"
         result="blur"
         id="feGaussianBlur15861" /><feOffset
         dx="0"
         dy="0"
         result="offset"
         id="feOffset15863" /><feComposite
         in="SourceGraphic"
         in2="offset"
         operator="over"
         result="composite2"
         id="feComposite15865" /></filter><filter
       style="color-interpolation-filters:sRGB;"
       inkscape:label="Drop Shadow"
       id="filter16734"
       x="-0.17801399"
       y="-0.77566871"
       width="1.356028"
       height="2.5513374"><feFlood
         flood-opacity="0.498039"
         flood-color="rgb(0,0,0)"
         result="flood"
         id="feFlood16724" /><feComposite
         in="SourceGraphic"
         in2="flood"
         operator="in"
         result="composite1"
         id="feComposite16726" /><feGaussianBlur
         in="composite1"
         stdDeviation="10.0479"
         result="blur"
         id="feGaussianBlur16728" /><feOffset
         dx="0"
         dy="0"
         result="offset"
         id="feOffset16730" /><feComposite
         in="SourceGraphic"
         in2="offset"
         operator="over"
         result="composite2"
         id="feComposite16732" /></filter><linearGradient
       inkscape:collect="always"
       xlink:href="#linearGradient4344"
       id="linearGradient30608"
       gradientUnits="userSpaceOnUse"
       gradientTransform="matrix(1.3204019,0,0,1.3204019,-68.56613,-91.681116)"
       x1="103.22574"
       y1="172.02928"
       x2="103.22574"
       y2="69.43425" /><linearGradient
       inkscape:collect="always"
       xlink:href="#linearGradient32417"
       id="linearGradient32419"
       x1="67.73333"
       y1="135.46666"
       x2="67.73333"
       y2="0"
       gradientUnits="userSpaceOnUse" /></defs><g
     inkscape:label="Layer 1"
     inkscape:groupmode="layer"
     id="layer1"><rect
       style="opacity:1;fill:url(#linearGradient32419);fill-opacity:1;stroke-width:1.32292;stop-color:#000000"
       id="rect30690"
       width="135.46666"
       height="135.46666"
       x="0"
       y="0" /><path
       id="rect4278"
       style="fill:url(#linearGradient4346);fill-opacity:1;stroke-width:1.32291;stop-color:#000000"
       d="M 42.10389 45.155383 C 41.742667 45.471846 41.441562 45.853756 41.219189 46.284513 L 53.350232 46.284513 L 53.350232 45.155383 L 42.10389 45.155383 z M 56.211556 45.155383 L 56.211556 46.284513 L 98.560392 46.284513 C 97.803112 45.84377 97.006205 45.463519 96.173975 45.155383 L 56.211556 45.155383 z M 40.846086 47.413127 C 40.811615 47.620606 40.789242 47.831852 40.789242 48.049264 L 40.789242 48.542257 L 53.350232 48.542257 L 53.350232 47.413127 L 40.846086 47.413127 z M 56.211556 47.413127 L 56.211556 48.542257 L 101.53954 48.542257 C 101.12667 48.142147 100.69177 47.765343 100.23626 47.413127 L 56.211556 47.413127 z M 40.789242 49.67087 L 40.789242 50.8 L 53.350232 50.8 L 53.350232 49.67087 L 40.789242 49.67087 z M 56.211556 49.67087 L 56.211556 50.8 L 103.46139 50.8 C 103.18931 50.410001 102.90037 50.03334 102.59425 49.67087 L 56.211556 49.67087 z M 40.789242 51.92913 L 40.789242 53.057743 L 53.350232 53.057743 L 53.350232 51.92913 L 40.789242 51.92913 z M 56.211556 51.92913 L 56.211556 53.057743 L 86.979187 53.057743 L 86.979187 51.92913 L 56.211556 51.92913 z M 91.485889 51.92913 C 92.725046 52.034511 93.880765 52.433757 94.883614 53.057743 L 104.76777 53.057743 C 104.58659 52.672169 104.38904 52.296413 104.17762 51.92913 L 91.485889 51.92913 z M 40.789242 54.186873 L 40.789242 55.315487 L 53.350232 55.315487 L 53.350232 54.186873 L 40.789242 54.186873 z M 56.211556 54.186873 L 56.211556 55.315487 L 86.979187 55.315487 L 86.979187 54.186873 L 56.211556 54.186873 z M 96.298515 54.186873 C 96.640617 54.532715 96.95085 54.910273 97.223006 55.315487 L 105.61681 55.315487 C 105.50632 54.933136 105.38344 54.55635 105.24474 54.186873 L 96.298515 54.186873 z M 40.789242 56.444617 L 40.789242 57.57323 L 53.350232 57.57323 L 53.350232 56.444617 L 40.789242 56.444617 z M 56.211556 56.444617 L 56.211556 57.57323 L 86.979187 57.57323 L 86.979187 56.444617 L 56.211556 56.444617 z M 97.848808 56.444617 C 98.012125 56.807031 98.148283 57.183752 98.254468 57.57323 L 106.0881 57.57323 C 106.03813 57.192753 105.97774 56.815812 105.90051 56.444617 L 97.848808 56.444617 z M 40.789242 58.70236 L 40.789242 59.830973 L 49.121549 59.830973 C 49.294993 59.375537 49.59702 58.984932 49.984546 58.70236 L 40.789242 58.70236 z M 59.576725 58.70236 C 59.964268 58.984945 60.266799 59.375511 60.440238 59.830973 L 86.979187 59.830973 L 86.979187 58.70236 L 59.576725 58.70236 z M 98.472542 58.70236 C 98.506661 58.995984 98.526286 59.29422 98.526286 59.596879 C 98.526286 59.675453 98.522432 59.75296 98.520085 59.830973 L 106.21832 59.830973 C 106.21949 59.75272 106.22452 59.675411 106.22452 59.596879 C 106.22452 59.296522 106.21358 58.998462 106.19662 58.70236 L 98.472542 58.70236 z M 40.789242 60.960103 L 40.789242 62.088717 L 48.956185 62.088717 L 48.956185 60.960103 L 40.789242 60.960103 z M 60.605086 60.960103 L 60.605086 62.088717 L 86.979187 62.088717 L 86.979187 60.960103 L 60.605086 60.960103 z M 98.403296 60.960103 C 98.33387 61.34706 98.235374 61.724004 98.110291 62.088717 L 106.02092 62.088717 C 106.08146 61.716823 106.12757 61.340442 106.16096 60.960103 L 98.403296 60.960103 z M 40.789242 63.217847 L 40.789242 64.34646 L 48.956185 64.34646 L 48.956185 63.217847 L 40.789242 63.217847 z M 60.605086 63.217847 L 60.605086 64.34646 L 86.979187 64.34646 L 86.979187 63.217847 L 60.605086 63.217847 z M 97.619881 63.217847 C 97.406486 63.616625 97.15806 63.993373 96.880391 64.34646 L 105.4747 64.34646 C 105.59466 63.976248 105.69991 63.599757 105.79199 63.217847 L 97.619881 63.217847 z M 40.789242 65.47559 L 40.789242 66.604203 L 48.956185 66.604203 L 48.956185 65.47559 L 40.789242 65.47559 z M 60.605086 65.47559 L 60.605086 66.604203 L 86.979187 66.604203 L 86.979187 65.47559 L 60.605086 65.47559 z M 95.791569 65.47559 C 95.255456 65.928929 94.656681 66.309574 94.010282 66.604203 L 104.53625 66.604203 C 104.72486 66.235953 104.90067 65.860291 105.05974 65.47559 L 95.791569 65.47559 z M 40.789242 67.733333 L 40.789242 68.862463 L 48.956185 68.862463 L 48.956185 67.733333 L 40.789242 67.733333 z M 60.605086 67.733333 L 60.605086 68.862463 L 103.12394 68.862463 C 103.39853 68.498617 103.65603 68.121313 103.89805 67.733333 L 60.605086 67.733333 z M 40.789242 69.991077 L 40.789242 71.120207 L 48.956185 71.120207 L 48.956185 69.991077 L 40.789242 69.991077 z M 60.605086 69.991077 L 60.605086 71.120207 L 101.03466 71.120207 C 101.43721 70.763386 101.8228 70.387756 102.18601 69.991077 L 60.605086 69.991077 z M 40.789242 72.24882 L 40.789242 73.37795 L 49.122066 73.37795 C 49.016591 73.101639 48.956184 72.803 48.956185 72.489632 L 48.956185 72.24882 L 40.789242 72.24882 z M 60.605086 72.24882 L 60.605086 72.489632 C 60.605087 72.802977 60.545182 73.101656 60.439722 73.37795 L 97.693778 73.37795 C 98.357553 73.046618 98.994179 72.668946 99.599089 72.24882 L 60.605086 72.24882 z M 40.789242 74.506563 L 40.789242 74.993355 C 40.789242 75.208915 40.796172 75.423038 40.807845 75.635693 L 86.960583 75.635693 C 86.972258 75.423039 86.979187 75.208914 86.979187 74.993355 L 90.828048 74.993355 C 92.159455 74.993355 93.450966 74.824189 94.68311 74.506563 L 59.574658 74.506563 C 59.163047 74.806048 58.658134 74.984569 58.110148 74.98457 L 51.451123 74.98457 C 50.903137 74.98457 50.398224 74.806048 49.986613 74.506563 L 40.789242 74.506563 z M 40.924634 76.764307 C 40.983625 77.14722 41.06151 77.523884 41.157178 77.893437 L 86.611251 77.893437 C 86.706931 77.523884 86.784795 77.14722 86.843795 76.764307 L 40.924634 76.764307 z M 41.513228 79.02205 C 41.657389 79.408955 41.823024 79.785149 42.006222 80.15118 L 85.76169 80.15118 C 85.944908 79.785156 86.110505 79.408948 86.254683 79.02205 L 41.513228 79.02205 z M 42.653727 81.279793 C 42.909708 81.673142 43.187665 82.05063 43.488302 82.408923 L 84.279093 82.408923 C 84.57983 82.050566 84.858123 81.673221 85.114185 81.279793 L 42.653727 81.279793 z M 44.570923 83.537537 C 45.0267 83.952068 45.517083 84.328526 46.034916 84.666667 L 81.732479 84.666667 C 82.250442 84.328485 82.741098 83.952134 83.196989 83.537537 L 44.570923 83.537537 z M 48.255452 85.795797 C 49.524708 86.275879 50.899398 86.540971 52.33634 86.540971 L 75.431055 86.540971 C 76.868 86.540971 78.242623 86.275879 79.511943 85.795797 L 48.255452 85.795797 z " /><path
       id="rect4278-2"
       style="fill:url(#linearGradient30608);fill-opacity:1;stroke-width:1.32291;stop-color:#000000"
       d="m 33.091003,90.390348 c -1.023467,0 -1.949872,0.400293 -2.638598,1.049549 h 66.863102 c -0.688929,-0.649304 -1.615602,-1.049549 -2.639115,-1.049549 z m -3.464904,2.178679 c -0.16893,0.350489 -0.289597,0.728496 -0.345716,1.128613 h 69.207145 c -0.05614,-0.400111 -0.176723,-0.778128 -0.345715,-1.128613 z m -0.340031,2.257743 c 0.06111,0.400746 0.187389,0.778843 0.361735,1.128613 h 68.472306 c 0.174411,-0.349769 0.300596,-0.727868 0.361735,-1.128613 z m 1.21698,2.257743 c 0.683337,0.621654 1.589174,1.003557 2.587955,1.003557 h 61.585389 c 0.998852,0 1.90493,-0.381827 2.588472,-1.003557 z" /></g></svg>
